<?xml version="1.0" encoding="utf-8"?>
<svg viewBox="12 36 512 512" xmlns="http://www.w3.org/2000/svg">
  <g transform="matrix(5, 0, 0, 5, 20.11746406555175, -249.30606079101562)">
    <path d="M 84 79.304 C 84 87.756 77.214 94.608 68.842 94.608 C 60.47 94.608 53.684 87.756 53.684 79.304 C 53.684 70.852 60.47 64 68.842 64 C 77.214 64 84 70.852 84 79.304 Z" style="stroke-width: 8.8px; fill: rgb(252, 252, 252); stroke: rgb(12, 12, 12);"/>
    <path d="M 84 117.565 C 84 126.017 77.214 132.869 68.842 132.869 C 60.47 132.869 53.684 126.017 53.684 117.565 C 53.684 109.113 60.47 102.261 68.842 102.261 C 77.214 102.261 84 109.113 84 117.565 Z" style="stroke-width: 8.8px; fill: rgb(252, 252, 252); stroke: rgb(12, 12, 12);"/>
    <path d="M 42.316 136.696 C 42.316 145.148 35.53 152 27.158 152 C 18.786 152 12 145.148 12 136.696 C 12 128.244 18.786 121.392 27.158 121.392 C 35.53 121.392 42.316 128.244 42.316 136.696 Z" style="stroke-width: 8.8px; fill: rgb(252, 252, 252); stroke: rgb(12, 12, 12);"/>
    <path d="M 42.316 98.435 C 42.316 106.887 35.53 113.739 27.158 113.739 C 18.786 113.739 12 106.887 12 98.435 C 12 89.983 18.786 83.131 27.158 83.131 C 35.53 83.131 42.316 89.983 42.316 98.435 Z" style="stroke-width: 8.8px; fill: rgb(252, 252, 252); stroke: rgb(12, 12, 12);"/>
    <path d="M 65.053 136.696 C 65.053 145.148 58.267 152 49.895 152 C 41.523 152 34.737 145.148 34.737 136.696 C 34.737 128.244 41.523 121.392 49.895 121.392 C 58.267 121.392 65.053 128.244 65.053 136.696 Z" style="stroke-width: 8.8px; fill: rgb(252, 252, 252); stroke: rgb(12, 12, 12);"/>
    <path d="M 65.053 98.435 C 65.053 106.887 58.267 113.739 49.895 113.739 C 41.523 113.739 34.737 106.887 34.737 98.435 C 34.737 89.983 41.523 83.131 49.895 83.131 C 58.267 83.131 65.053 89.983 65.053 98.435 Z" style="stroke-width: 8.8px; fill: rgb(252, 252, 252); stroke: rgb(12, 12, 12);"/>
  </g>
</svg>